<?xml version="1.0" encoding="utf-8"?><!--Generator: Adobe Illustrator 22.0.0, SVG Export Plug-In . SVG Version: 6.00 Build 0)--><svg xmlns="http://www.w3.org/2000/svg" xmlns:xlink="http://www.w3.org/1999/xlink" xml:space="preserve" id="Layer_1" x="0px" y="0px" enable-background="new 0 0 742.1 160" version="1.1" viewBox="0 0 742.1 160" preserveAspectRatio="xMidYMin slice"><path fill="#FFFFFF" d="M0.5,130.1v-100h50.2v24H27.5v14.1h20.8v24H27.5v13.9h23.2v24H0.5z M97.2,30.1h27v70.7	c0,5.8-0.9,10.5-2.8,14.1c-1.8,3.8-4.8,7.2-9.1,10.2c-5.7,4.1-12.6,6.1-20.8,6.1c-9.2,0-17-2.2-23.3-6.8c-8-5.7-11.9-14.9-11.9-27.5	V30.1h27v65.3c0,4.3,0.5,7.4,1.6,9.2c1.1,1.8,2.8,2.7,5.3,2.7c2.6,0,4.4-0.8,5.4-2.5c1-1.8,1.5-4.9,1.5-9.3	C97.2,95.4,97.2,30.1,97.2,30.1z M201.1,130.1h-29.2l-13.4-35.6c-0.1-0.6-0.4-1.4-0.7-2.4c-0.3-1-0.7-2.2-1.2-3.6l0.2,6.6v35h-26.9	v-100h27.7c12.2,0,21.3,2.4,27.3,7.2c7.7,6.1,11.5,14.9,11.5,26.2c0,12.1-5.2,20.4-15.5,25.1L201.1,130.1z M156.9,74.9h1.8	c3.1,0,5.7-1.2,7.8-3.6c2.1-2.4,3.1-5.4,3.1-9.1c0-7.5-3.9-11.2-11.7-11.2h-1V74.9L156.9,74.9z M277.1,80.4	c0,15.1-3.6,27.4-10.7,36.8c-7.1,9.4-16.3,14.1-27.7,14.1c-10.1,0-18.8-3.6-26-10.8c-9.1-9.2-13.6-22.9-13.6-41.2	c0-17.5,4.7-31,14.2-40.2c7-6.9,15.4-10.3,25.1-10.3c11.8,0,21.2,4.7,28.2,14C273.6,52.1,277.1,64.7,277.1,80.4L277.1,80.4z M248.4,80.7c0-18.2-3.3-27.3-9.8-27.3c-3.3,0-5.9,2.4-7.8,7.2c-1.9,4.4-2.9,10.9-2.9,19.5c0,8.5,0.9,15,2.7,19.7	c1.8,4.7,4.3,7,7.5,7c3.3,0,5.8-2.3,7.6-6.9C247.4,95.3,248.4,88.9,248.4,80.7L248.4,80.7z M309,130.1h-27v-100h26.2	c13,0,22.7,2.7,29,8c7.4,6.3,11.1,15,11.1,26.1c0,12.1-4,21.2-11.9,27.2c-5.4,4-13.1,6-23.3,6H309V130.1L309,130.1z M309,76.3	l1.2,0.1c3.3,0,5.9-1,7.8-3c1.9-2,2.9-4.8,2.9-8.3c0-3.5-1-6.3-2.9-8.4c-1.9-2.2-4.3-3.3-7.3-3.3H309V76.3L309,76.3z M416.3,130.1	h-27.9l-2-12.7h-18.2l-2.2,12.7h-27.9l24-100h33L416.3,130.1L416.3,130.1z M383.2,96.4l-1.8-11.7c0,0-0.1-0.6-0.3-1.8	c-0.1-0.9-0.5-4.7-1.4-11.3c-0.1-0.7-0.2-1.7-0.3-3c-0.2-1.6-0.3-3.2-0.5-4.8l-0.8-9.5c-0.1,1-0.2,2-0.4,3c-0.2,1.2-0.3,2.5-0.5,3.7	c-0.2,1.9-0.4,3.7-0.6,5.6c-0.1,1-0.2,1.7-0.3,1.9l-1.9,12.1l-2.7,15.7L383.2,96.4L383.2,96.4z M448,130.1h-27v-76h-14.9v-24h57.4	v24H448L448,130.1L448,130.1z M495.4,130.1h-27v-100h27V130.1L495.4,130.1z M528.2,130.1h-27v-100h26.2c13,0,22.7,2.7,29,8	c7.4,6.3,11.1,15,11.1,26.1c0,12.1-4,21.2-11.8,27.2c-5.4,4-13.2,6-23.3,6h-4.2V130.1L528.2,130.1z M528.2,76.3l1.2,0.1	c3.3,0,5.9-1,7.8-3s2.9-4.8,2.9-8.3c0-3.5-1-6.3-2.8-8.4c-1.9-2.2-4.3-3.3-7.3-3.3h-1.9V76.3L528.2,76.3z M570.8,126.9V95.5	c5.4,7.4,11.3,11.1,17.6,11.1c2.4,0,4.3-0.6,5.8-1.8c1.5-1.2,2.2-2.7,2.2-4.6c0-2.6-1.6-5.2-4.9-7.7l-4.5-3.4	c-3-2.2-5.5-4.3-7.7-6.5c-2.1-2.1-3.8-4.3-5.2-6.6c-1.3-2.3-2.3-4.6-2.9-7s-0.9-5-0.9-7.7c0-4.6,1.1-9.4,3.3-14.4	c1.1-2.3,2.4-4.5,3.8-6.4c1.4-1.9,3.1-3.7,5-5.1c5.2-4.2,11.5-6.4,18.8-6.4c6.6,0,13.2,1.7,19.8,5.1v30.6c-2.2-3.5-4.8-6.2-7.7-8.2	c-2.9-2-5.7-3-8.5-3c-2.1,0-3.9,0.6-5.2,1.8c-1.4,1.2-2.1,2.5-2.1,4.1c0,2.6,1.9,5.2,5.6,7.8l4.4,3.1c5.8,4,10,8.2,12.5,12.4	c2.5,4.2,3.8,9.2,3.8,14.9c0,9.7-3.1,17.7-9.2,23.9c-6.1,6.3-13.9,9.4-23.3,9.4C585.1,131.1,578.2,129.7,570.8,126.9L570.8,126.9z M628.6,130.1v-100h50.2v24h-23.2v14.1h20.8v24h-20.8v13.9h23.2v24H628.6z M725,130.1h-27v-76h-14.9v-24h57.4v24H725L725,130.1	L725,130.1z"/></svg>