<?xml version="1.0" encoding="utf-8"?><!--Generator: Adobe Illustrator 22.0.0, SVG Export Plug-In . SVG Version: 6.00 Build 0)--><svg xmlns="http://www.w3.org/2000/svg" xmlns:xlink="http://www.w3.org/1999/xlink" xml:space="preserve" id="Layer_1" x="0px" y="0px" enable-background="new 0 0 610.9 160" version="1.1" viewBox="0 0 610.9 160" preserveAspectRatio="xMidYMin slice"><path fill="#FFFFFF" d="M136,80.4c0,15.1-3.6,27.4-10.7,36.8c-7.1,9.4-16.3,14.1-27.7,14.1c-10.1,0-18.8-3.6-26-10.8	C62.5,111.4,58,97.7,58,79.3c0-17.5,4.7-30.9,14.2-40.2c7-6.9,15.4-10.3,25.1-10.3c11.8,0,21.2,4.7,28.2,14	C132.5,52.1,136,64.7,136,80.4z M107.2,80.7c0-18.2-3.3-27.3-9.8-27.3c-3.3,0-5.9,2.4-7.8,7.2c-1.9,4.4-2.9,11-2.9,19.6	c0,8.5,0.9,15.1,2.7,19.7c1.8,4.7,4.3,7,7.5,7c3.3,0,5.8-2.3,7.6-6.9C106.3,95.3,107.2,88.9,107.2,80.7z M43.9,130.1h-27v-76H2v-24	h57.4v24H43.9L43.9,130.1L43.9,130.1z M318.5,130.1h-27v-76h-14.9v-24H334v24h-15.5L318.5,130.1L318.5,130.1z M365.9,130.1h-27v-100	h27V130.1z M398.6,130.1h-27v-100h26.2c13,0,22.7,2.7,29,8c7.4,6.3,11.1,15,11.1,26.1c0,12.1-4,21.2-11.9,27.1c-5.4,4-13.2,6-23.3,6	h-4.2L398.6,130.1L398.6,130.1z M398.6,76.3l1.2,0.1c3.3,0,5.9-1,7.8-3c1.9-2,2.9-4.8,2.9-8.3c0-3.5-1-6.3-2.8-8.4	c-1.9-2.2-4.3-3.3-7.3-3.3h-1.9L398.6,76.3L398.6,76.3z M441.2,126.9V95.5c5.4,7.4,11.3,11.1,17.6,11.1c2.4,0,4.3-0.6,5.8-1.8	c1.5-1.2,2.2-2.7,2.2-4.6c0-2.6-1.6-5.2-4.9-7.7l-4.5-3.4c-3-2.2-5.6-4.3-7.7-6.5c-2.1-2.1-3.8-4.4-5.2-6.6c-1.3-2.3-2.3-4.6-2.9-7	c-0.6-2.4-0.9-5-0.9-7.6c0-4.6,1.1-9.4,3.3-14.4c1.1-2.3,2.4-4.5,3.8-6.4c1.4-1.9,3.1-3.6,5-5.1c5.2-4.2,11.5-6.4,18.8-6.4	c6.6,0,13.2,1.7,19.8,5.1v30.6c-2.2-3.5-4.8-6.2-7.7-8.2c-2.9-2-5.7-3-8.5-3c-2.1,0-3.9,0.6-5.2,1.8c-1.4,1.1-2.1,2.5-2.1,4.1	c0,2.6,1.9,5.2,5.6,7.8l4.4,3.1c5.8,4,10,8.2,12.5,12.4c2.6,4.2,3.8,9.2,3.8,14.9c0,9.7-3.1,17.7-9.2,23.9	c-6.1,6.3-13.9,9.4-23.3,9.4C455.5,131.1,448.6,129.7,441.2,126.9L441.2,126.9z M499.1,130.1v-100h50.2v24h-23.2v14.1h20.8v24h-20.8	v13.9h23.2v24L499.1,130.1L499.1,130.1z M595.5,130.1h-27v-76h-14.9v-24h57.4v24h-15.5L595.5,130.1L595.5,130.1z M166.5,130.1h-27	v-100h26.2c13,0,22.7,2.7,29,8c7.4,6.3,11.1,15,11.1,26.1c0,12.1-4,21.2-11.9,27.1c-5.4,4-13.2,6-23.3,6h-4.2V130.1L166.5,130.1z M166.5,76.3l1.2,0.1c3.3,0,5.9-1,7.8-3c1.9-2,2.9-4.8,2.9-8.3c0-3.5-1-6.3-2.8-8.4c-1.9-2.2-4.3-3.3-7.3-3.3h-1.9L166.5,76.3	L166.5,76.3z M236,130.1h-27v-100h26.2c13,0,22.7,2.7,29,8c7.4,6.3,11.1,15,11.1,26.1c0,12.1-4,21.2-11.9,27.1c-5.4,4-13.2,6-23.3,6	H236V130.1L236,130.1z M236,76.3l1.2,0.1c3.3,0,5.9-1,7.8-3c1.9-2,2.9-4.8,2.9-8.3c0-3.5-1-6.3-2.8-8.4c-1.9-2.2-4.3-3.3-7.3-3.3	H236L236,76.3L236,76.3z"/></svg>